# AST/ASF file generated using VICON BodyLanguage
# -----------------------------------------------
:version 1.10
:name VICON
:units
  mass 1.0
  length 0.45
  angle deg
:documentation
   .ast/.asf automatically generated from VICON data using
   VICON BodyBuilder and BodyLanguage model FoxedUp or BRILLIANT.MOD
:root
   order TX TY TZ RX RY RZ
   axis XYZ
   position 0 0 0  
   orientation 0 0 0 
:bonedata
  begin
     id 1 
     name lhipjoint
     direction 0.584852 -0.759097 0.285867 
     length 2.43633 
     axis 0 0 0  XYZ
  end
  begin
     id 2 
     name lfemur
     direction 0.34202 -0.939693 0  
     length 7.14704  
     axis 0 0 20  XYZ
    dof rx ry rz
    limits (-160.0 20.0)
           (-70.0 70.0)
           (-60.0 70.0)
  end
  begin
     id 3 
     name ltibia
     direction 0.342022 -0.939692 0   
     length 7.68483   
     axis 0 0 20   XYZ
    dof rx
    limits (-10.0 170.0)
  end
  begin
     id 4 
     name lfoot
     direction 0.0999605 -0.274639 0.956337   
     length 2.40452   
     axis -90 7.62852e-016 20   XYZ
    dof rx rz
    limits (-45.0 90.0)
           (-70.0 20.0)
  end
  begin
     id 5 
     name ltoes
     direction 1.53468e-011 -4.21881e-011 1   
     length 1.19837   
     axis -90 7.62852e-016 20   XYZ
    dof rx
    limits (-90.0 20.0)
  end
  begin
     id 6 
     name rhipjoint
     direction -0.569886 -0.769002 0.289597   
     length 2.40495  
     axis 0 0 0  XYZ 
  end
  begin
     id 7 
     name rfemur
     direction -0.34202 -0.939693 0   
     length 7.45086   
     axis 0 0 -20   XYZ
    dof rx ry rz
    limits (-160.0 20.0)
           (-70.0 70.0)
           (-70.0 60.0)
  end
  begin
     id 8 
     name rtibia
     direction -0.34202 -0.939693 0   
     length 7.76831   
     axis 0 0 -20   XYZ
    dof rx
    limits (-10.0 170.0)
 end
 begin
     id 9 
     name rfoot
     direction -0.0798572 -0.219406 0.97236   
     length 2.35911  
     axis -90 -7.62852e-016 -20   XYZ
    dof rx rz
    limits (-45.0 90.0)
           (-20.0 70.0)
  end
  begin
     id 10 
     name rtoes
     direction -1.53469e-011 -4.21728e-011 1   
     length 1.18261   
     axis -90 -7.62852e-016 -20   XYZ
    dof rx
    limits (-90.0 20.0)
  end
  begin
     id 11 
     name lowerback
     direction 0.0242088 0.999437 0.0232389   
     length 2.1561   
     axis 0 0 0   XYZ
    dof rx ry rz
    limits (-20.0 45.0)
           (-30.0 30.0)
           (-30.0 30.0)
  end
  begin
     id 12 
     name upperback
     direction -0.0356893 0.999013 -0.0264323   
     length 2.14431   
     axis 0 0 0   XYZ
    dof rx ry rz
    limits (-20.0 45.0)
           (-30.0 30.0)
           (-30.0 30.0)
  end
  begin
     id 13 
     name thorax
     direction -0.0472163 0.998194 -0.0371284   
     length 2.16169   
     axis 0 0 0   XYZ
    dof rx ry rz
    limits (-20.0 45.0)
           (-30.0 30.0)
           (-30.0 30.0)
  end
  begin
     id 14 
     name lowerneck
     direction 0.00863244 0.999921 0.00911972   
     length 1.58651   
     axis 0 0 0   XYZ
    dof rx ry rz
    limits (-20.0 45.0)
           (-30.0 30.0)
           (-30.0 30.0)
  end
  begin
     id 15 
     name upperneck
     direction 0.149523 0.979068 -0.138086   
     length 1.57486   
     axis 0 0 0   XYZ
    dof rx ry rz
    limits (-20.0 45.0)
           (-30.0 30.0)
           (-30.0 30.0)
  end
  begin
     id 16
     name head
     direction 0.0445219 0.997708 -0.0509576  
     length 1.6019  
     axis 0 0 0   XYZ
    dof rx ry rz
    limits (-20.0 45.0)
           (-30.0 30.0)
           (-30.0 30.0)
  end
  begin
     id 17 
     name lclavicle
     direction 0.911271 0.381667 -0.154644  
     length 3.80848  
     axis 0 0 0   XYZ
    dof ry rz
    limits (-20.0 10.0)
           (0.0 20.0)
  end
  begin
     id 18 
     name lhumerus
     direction 1 -4.49003e-011 2.1308e-027   
     length 5.19069   
     axis 180 -30 -90   XYZ
    dof rx ry rz
    limits (-60.0 90.0)
           (-90.0 90.0)
           (-90.0 90.0)
  end
  begin
     id 19
     name lradius
     direction 1 -4.48914e-011 4.01554e-027   
     length 3.30016   
     axis 180 -30 -90   XYZ
    dof rx
    limits (-10.0 170.0)
  end
  begin
     id 20
     name lwrist
     direction 1 -4.49003e-011 1.1934e-026   
     length 1.65008   
     axis -8.46377e-015 90 90   XYZ
    dof ry
    limits (-180.0 0.0)
 end
  begin
     id 21 
     name lhand
     direction 1 -4.49034e-011 2.38659e-026   
     length 0.707698   
     axis -1.52313e-014 90 90   XYZ
    dof rx rz
    limits (-90.0 90.0)
           (-45.0 45.0)
  end
  begin
     id 22 
     name lfingers
     direction 1 -4.48691e-011 4.77775e-026   
     length 0.570564   
     axis -3.04623e-014 90 90   XYZ
    dof rx
    limits (0.0 90.0)
  end
  begin
     id 23
     name lthumb
     direction 0.707107 -6.34832e-011 0.707107   
     length 0.819219   
     axis -90 45 -1.62303e-014   XYZ
    dof rx rz
    limits (-45.0 45.0)
           (-45.0 45.0)
  end
  begin
     id 24 
     name rclavicle
     direction -0.815579 0.573708 -0.0754329   
     length 3.54371  
     axis 0 0 0   XYZ 
    dof ry rz
    limits (-10.0 20.0)
           (-20.0 0.0)
  end
  begin
     id 25 
     name rhumerus
     direction -1 -4.48956e-011 3.05351e-028  
     length 5.23924   
     axis 180 30 90   XYZ
    dof rx ry rz
    limits (-90.0 60.0)
           (-90.0 90.0)
           (-90.0 90.0)
  end
  begin
     id 26 
     name rradius
     direction -1 -4.49013e-011 3.53849e-027   
     length 3.32953   
     axis 180 30 90   XYZ
    dof rx
    limits (-10.0 170.0)
  end
  begin
     id 27 
     name rwrist
     direction -1 -4.48901e-011 1.19374e-026   
     length 1.66477   
     axis -8.46377e-015 -90 -90   XYZ
    dof ry
    limits (-180.0 0.0)
  end
  begin
     id 28
     name rhand
     direction -1 -4.48877e-011 2.38764e-026   
     length 0.607414   
     axis -1.52313e-014 -90 -90   XYZ
    dof rx rz
    limits (-90.0 90.0)
           (-45.0 45.0)
  end
  begin
     id 29
     name rfingers
     direction -1 -4.48882e-011 4.77521e-026   
     length 0.489712   
     axis -3.04623e-014 -90 -90   XYZ
    dof rx
    limits (0.0 90.0)
  end
  begin
     id 30
     name rthumb
     direction -0.707107 -6.34974e-011 0.707107   
     length 0.703132   
     axis -90 -45 1.62303e-014   XYZ
    dof rx rz
    limits (-45.0 45.0)
           (-45.0 45.0)
  end
:hierarchy
  begin
    root lhipjoint rhipjoint lowerback
    lhipjoint lfemur
    lfemur ltibia
    ltibia lfoot
    lfoot ltoes
    rhipjoint rfemur
    rfemur rtibia
    rtibia rfoot
    rfoot rtoes
    lowerback upperback
    upperback thorax
    thorax lowerneck lclavicle rclavicle
    lowerneck upperneck
    upperneck head
    lclavicle lhumerus
    lhumerus lradius
    lradius lwrist
    lwrist lhand lthumb
    lhand lfingers
    rclavicle rhumerus
    rhumerus rradius
    rradius rwrist
    rwrist rhand rthumb
    rhand rfingers
  end

#!OML:ASF E:\VariousWalksJay\Project 1\Capture day 1\Session 1\Actor2.ASF
:FULLY-SPECIFIED
:DEGREES
135
root 10.336 17.143 4.3967 17.9503 -62.7697 -15.9814
lowerback -7.13772 -0.175657 7.1961
upperback 2.9866 -0.972728 0.0161122
thorax 7.0619 -0.151981 -4.15786
lowerneck -12.387 -5.147 -6.3928
upperneck 9.49387 -7.66733 13.5268
head 5.69851 -3.12839 4.63996
rclavicle 2.0773e-014 1.19271e-014
rhumerus -86.0961 23.6709 -140.913
rradius 73.5258
rwrist 5.38306
rhand -6.82152 8.02159
rfingers 7.12502
rthumb 19.0425 -21.0662
lclavicle 2.0773e-014 1.19271e-014
lhumerus -88.9305 -28.866 145.069
lradius 71.9623
lwrist 2.73569
lhand -0.565931 19.884
lfingers 7.12502
lthumb 25.0482 48.2615
rfemur -15.5774 -7.14653 30.4235
rtibia 36.6929
rfoot -25.6613 -9.044
rtoes 1.05917
lfemur -16.6526 5.80656 -14.0117
ltibia 38.444
lfoot -24.9372 1.32806
ltoes -1.53052
136
root 10.3477 17.1412 4.39735 18.0155 -62.6485 -16.0126
lowerback -7.06964 -0.175515 7.2204
upperback 2.99623 -0.969807 0.0161547
thorax 7.03315 -0.150386 -4.17003
lowerneck -12.3797 -5.1936 -6.4241
upperneck 9.46927 -7.72778 13.5603
head 5.69877 -3.15779 4.64972
rclavicle 4.25399e-014 -1.51076e-014
rhumerus -85.984 23.7474 -140.955
rradius 73.5153
rwrist 5.15496
rhand -6.77668 7.97186
rfingers 7.12502
rthumb 19.0856 -21.1117
lclavicle 4.25399e-014 -1.51076e-014
lhumerus -88.9314 -29.1369 145.018
lradius 72.212
lwrist 2.71472
lhand 0.403727 20.281
lfingers 7.12502
lthumb 25.977 48.5256
rfemur -15.6658 -7.18621 30.4557
rtibia 36.6955
rfoot -25.6806 -8.9769
rtoes 1.08677
lfemur -16.9043 5.73762 -13.9426
ltibia 38.7061
lfoot -24.8238 0.921065
ltoes -1.52039
137
root 10.3601 17.1394 4.39805 18.1006 -62.5053 -16.07
lowerback -6.99977 -0.179026 7.27164
upperback 3.01491 -0.974746 0.0158435
thorax 7.01198 -0.150924 -4.19878
lowerneck -12.3787 -5.23569 -6.44393
upperneck 9.43195 -7.78256 13.5948
head 5.69524 -3.18414 4.65831
rclavicle -1.98785e-015 -1.98785e-014
rhumerus -85.8341 23.8091 -140.974
rradius 73.4972
rwrist 4.97441
rhand -6.74766 7.97186
rfingers 7.12502
rthumb 19.1135 -21.109
lclavicle -1.98785e-015 -1.98785e-014
lhumerus -88.9212 -29.4304 144.963
lradius 72.4216
lwrist 2.70445
lhand 1.21853 20.5978
lfingers 7.12502
lthumb 26.757 48.7256
rfemur -15.7499 -7.22463 30.5075
rtibia 36.6895
rfoot -25.6987 -8.92905
rtoes 1.09948
lfemur -17.1808 5.635 -13.8482
ltibia 39.0085
lfoot -24.6919 0.486641
ltoes -1.5723
138
root 10.3732 17.1376 4.39893 18.2083 -62.3426 -16.1545
lowerback -6.928 -0.186448 7.3471
upperback 3.0392 -0.987634 0.0186366
thorax 6.99467 -0.154086 -4.23889
lowerneck -12.3832 -5.27472 -6.46024
upperneck 9.3871 -7.833 13.6315
head 5.68989 -3.20815 4.66736
rclavicle -3.13086e-014 1.82882e-014
rhumerus -85.6536 23.8582 -140.963
rradius 73.4726
rwrist 4.87424
rhand -6.81554 7.97024
rfingers 7.12502
rthumb 19.0482 -21.117
lclavicle -3.13086e-014 1.82882e-014
lhumerus -88.9015 -29.7329 144.912
lradius 72.5869
lwrist 2.68846
lhand 1.80348 20.7261
lfingers 7.12502
lthumb 27.3166 48.7671
rfemur -15.8332 -7.26282 30.5799
rtibia 36.6767
rfoot -25.7127 -8.90864
rtoes 1.05615
lfemur -17.4819 5.48621 -13.7258
ltibia 39.3502
lfoot -24.5489 0.0199867
ltoes -1.66969
139
root 10.3869 17.1359 4.40008 18.3122 -62.1809 -16.2372
lowerback -6.85103 -0.192551 7.4287
upperback 3.06764 -0.998898 0.0194444
thorax 6.97894 -0.155965 -4.28428
lowerneck -12.392 -5.312 -6.47393
upperneck 9.33761 -7.88126 13.6713
head 5.68368 -3.23081 4.67705
rclavicle -1.19271e-014 -3.57812e-014
rhumerus -85.4389 23.8934 -140.918
rradius 73.4378
rwrist 4.85821
rhand -6.94049 7.98696
rfingers 7.12502
rthumb 18.9281 -21.1121
lclavicle -1.19271e-014 -3.57812e-014
lhumerus -88.8917 -30.0424 144.88
lradius 72.7147
lwrist 2.65507
lhand 2.13354 20.7007
lfingers 7.12502
lthumb 27.6323 48.6915
rfemur -15.9145 -7.28739 30.6512
rtibia 36.661
rfoot -25.7267 -8.90664
rtoes 0.989438
lfemur -17.7975 5.28165 -13.5945
ltibia 39.7258
lfoot -24.3998 -0.470964
ltoes -1.79355
140
root 10.4011 17.134 4.40141 18.4207 -62.0231 -16.3247
lowerback -6.76975 -0.196493 7.51385
upperback 3.09715 -1.00729 0.0214873
thorax 6.96225 -0.156327 -4.32991
lowerneck -12.4007 -5.34785 -6.48908
upperneck 9.28578 -7.92743 13.714
head 5.67675 -3.25241 4.68816
rclavicle -2.47487e-014 6.36111e-015
rhumerus -85.1952 23.9164 -140.84
rradius 73.3884
rwrist 4.91903
rhand -7.11256 8.00705
rfingers 7.12502
rthumb 18.7626 -21.1081
lclavicle -2.47487e-014 6.36111e-015
lhumerus -88.869 -30.3365 144.852
lradius 72.784
lwrist 2.57919
lhand 2.22437 20.5135
lfingers 7.12502
lthumb 27.7191 48.4904
rfemur -15.9989 -7.29693 30.7247
rtibia 36.6481
rfoot -25.7393 -8.92631
rtoes 0.865033
lfemur -18.1263 5.0228 -13.4482
ltibia 40.1279
lfoot -24.2459 -0.996987
ltoes -1.94251
141
root 10.4156 17.1319 4.4032 18.5261 -61.8783 -16.4119
lowerback -6.68227 -0.196045 7.59916
upperback 3.12731 -1.00914 0.0227429
thorax 6.94353 -0.153522 -4.37556
lowerneck -12.4073 -5.38233 -6.50627
upperneck 9.23453 -7.97208 13.7605
head 5.66977 -3.2732 4.70104
rclavicle 3.1408e-014 -1.27222e-014
rhumerus -84.927 23.9285 -140.732
rradius 73.3376
rwrist 4.98847
rhand -7.24923 7.98256
rfingers 7.12502
rthumb 18.6311 -21.1452
lclavicle 3.1408e-014 -1.27222e-014
lhumerus -88.8494 -30.6149 144.835
lradius 72.8104
lwrist 2.47227
lhand 2.10673 20.1823
lfingers 7.12502
lthumb 27.6067 48.1772
rfemur -16.0832 -7.28968 30.7933
rtibia 36.6427
rfoot -25.7501 -8.96812
rtoes 0.657749
lfemur -18.457 4.70006 -13.2904
ltibia 40.5472
lfoot -24.0936 -1.54889
ltoes -2.09796
142
root 10.4302 17.1293 4.40531 18.6267 -61.7515 -16.4921
lowerback -6.58869 -0.190756 7.67494
upperback 3.15371 -1.00272 0.0241757
thorax 6.91839 -0.147457 -4.4145
lowerneck -12.4046 -5.4174 -6.53228
upperneck 9.18432 -8.01749 13.8144
head 5.66234 -3.29457 4.71784
rclavicle -4.86029e-014 4.77083e-015
rhumerus -84.6469 23.9313 -140.606
rradius 73.2795
rwrist 5.03984
rhand -7.33155 7.91237
rfingers 7.12502
rthumb 18.5519 -21.223
lclavicle -4.86029e-014 4.77083e-015
lhumerus -88.8319 -30.8633 144.83
lradius 72.7968
lwrist 2.35014
lhand 1.8137 19.7825
lfingers 7.12502
lthumb 27.3264 47.8219
rfemur -16.1724 -7.26428 30.8531
rtibia 36.6476
rfoot -25.7694 -9.0176
rtoes 0.447104
lfemur -18.7915 4.32657 -13.1231
ltibia 40.9759
lfoot -23.9449 -2.14087
ltoes -2.22534
143
root 10.4447 17.1264 4.40785 18.7287 -61.6451 -16.5756
lowerback -6.48647 -0.180451 7.74191
upperback 3.17598 -0.987856 0.0288134
thorax 6.88508 -0.138185 -4.4439
lowerneck -12.3949 -5.45337 -6.56373
upperneck 9.14096 -8.06414 13.868
head 5.65617 -3.31682 4.73545
rclavicle -4.00551e-014 -1.59028e-014
rhumerus -84.3663 23.9284 -140.469
rradius 73.2165
rwrist 5.03314
rhand -7.31894 7.79227
rfingers 7.12502
rthumb 18.5641 -21.3419
lclavicle -4.00551e-014 -1.59028e-014
lhumerus -88.8242 -31.0877 144.84
lradius 72.7614
lwrist 2.23232
lhand 1.4255 19.3636
lfingers 7.12502
lthumb 26.955 47.4609
rfemur -16.2618 -7.21612 30.9074
rtibia 36.6623
rfoot -25.7995 -9.07382
rtoes 0.25731
lfemur -19.1254 3.9037 -12.9409
ltibia 41.4062
lfoot -23.7994 -2.7629
ltoes -2.33293
144
root 10.459 17.1228 4.411 18.8447 -61.5587 -16.6812
lowerback -6.37627 -0.166227 7.81113
upperback 3.19772 -0.967316 0.0366897
thorax 6.84743 -0.126335 -4.47035
lowerneck -12.3806 -5.48782 -6.59532
upperneck 9.10549 -8.10953 13.9194
head 5.65147 -3.33854 4.75267
rclavicle 3.08116e-015 1.43125e-014
rhumerus -84.0945 23.9271 -140.34
rradius 73.1477
rwrist 4.94669
rhand -7.2107 7.62206
rfingers 7.12502
rthumb 18.6682 -21.5022
lclavicle 3.08116e-015 1.43125e-014
lhumerus -88.8302 -31.2981 144.866
lradius 72.7183
lwrist 2.14444
lhand 0.994645 18.992
lfingers 7.12502
lthumb 26.5427 47.1523
rfemur -16.3463 -7.1503 30.9642
rtibia 36.6861
rfoot -25.8385 -9.13373
rtoes 0.0936358
lfemur -19.4493 3.44164 -12.7372
ltibia 41.8301
lfoot -23.6676 -3.39051
ltoes -2.50434
145
root 10.4732 17.1187 4.41489 18.9854 -61.4893 -16.82
lowerback -6.25947 -0.148769 7.88626
upperback 3.21905 -0.942784 0.0521878
thorax 6.80623 -0.112661 -4.49152
lowerneck -12.362 -5.5227 -6.63108
upperneck 9.07898 -8.15537 13.967
head 5.64885 -3.36073 4.76938
rclavicle -6.24184e-014 7.95139e-016
rhumerus -83.8434 23.9314 -140.228
rradius 73.0686
rwrist 4.78553
rhand -7.05519 7.40145
rfingers 7.12502
rthumb 18.8177 -21.7083
lclavicle -6.24184e-014 7.95139e-016
lhumerus -88.8217 -31.4858 144.899
lradius 72.6468
lwrist 2.0911
lhand 0.557478 18.6861
lfingers 7.12502
lthumb 26.1242 46.909
rfemur -16.4252 -7.07385 31.03
rtibia 36.7157
rfoot -25.885 -9.19217
rtoes -0.0220075
lfemur -19.7622 2.94637 -12.5062
ltibia 42.2418
lfoot -23.5532 -4.02386
ltoes -2.71735
146
root 10.4873 17.1143 4.41946 19.1532 -61.4358 -16.9938
lowerback -6.13563 -0.131198 7.96388
upperback 3.23917 -0.918168 0.0779955
thorax 6.75988 -0.0994111 -4.50308
lowerneck -12.3399 -5.5545 -6.66503
upperneck 9.06252 -8.19709 14.004
head 5.64772 -3.3813 4.78293
rclavicle -5.76476e-015 1.11319e-014
rhumerus -83.6301 23.9477 -140.147
rradius 72.9466
rwrist 4.64802
rhand -6.99369 7.22786
rfingers 7.12502
rthumb 18.8769 -21.8762
lclavicle -5.76476e-015 1.11319e-014
lhumerus -88.7991 -31.6545 144.949
lradius 72.5538
lwrist 2.07558
lhand 0.146466 18.463
lfingers 7.12502
lthumb 25.7307 46.7435
rfemur -16.4984 -6.98828 31.1068
rtibia 36.7486
rfoot -25.9344 -9.25124
rtoes -0.089662
lfemur -20.0615 2.43058 -12.2498
ltibia 42.6352
lfoot -23.4604 -4.65574
ltoes -2.9813
